<?xml version="1.0" encoding="iso-8859-1"?>
<!-- Generator: Adobe Illustrator 19.0.0, SVG Export Plug-In . SVG Version: 6.00 Build 0)  -->
<svg version="1.1" id="Layer_1" xmlns="http://www.w3.org/2000/svg" xmlns:xlink="http://www.w3.org/1999/xlink" x="0px" y="0px"
	 viewBox="0 0 203 203" style="enable-background:new 0 0 203 203;" xml:space="preserve">
<g>
	<g>
		<path d="M203,72.235c0-16.403-13.337-29.75-29.729-29.75h-1.837c-0.974,0-1.905,0.407-2.569,1.121
			c-0.661,0.718-0.996,1.675-0.921,2.649c0.037,0.489,0.056,0.981,0.056,1.48c0,10.613-8.644,19.25-19.271,19.25H96.682
			L85.343,53.467c-1.241-1.483-3.45-1.671-4.93-0.434c-1.482,1.244-1.675,3.452-0.432,4.932l7.566,9.02H57.771
			c-10.627,0-19.271-8.637-19.271-19.25c0-0.499,0.019-0.991,0.056-1.48c0.075-0.974-0.26-1.931-0.921-2.649
			c-0.663-0.714-1.594-1.121-2.569-1.121h-5.337C13.337,42.485,0,55.834,0,72.235c0,16.402,13.337,29.75,29.729,29.75h87.175
			l17.864,21.297l9.795,34.682c0.323,1.145,1.203,2.044,2.338,2.396c0.338,0.103,0.685,0.154,1.03,0.154
			c0.812,0,1.611-0.284,2.249-0.82l24.131-20.248c0.911-0.762,1.371-1.934,1.224-3.114c-0.147-1.18-0.882-2.201-1.952-2.717
			l-34.563-16.687c-0.196-0.095-0.404-0.137-0.609-0.193l-12.372-14.75h47.232C189.664,101.985,203,88.639,203,72.235z
			 M165.668,137.568l-15.838,13.289l-6.846-24.244L165.668,137.568z M29.729,94.985C17.196,94.985,7,84.779,7,72.235
			s10.196-22.75,22.729-22.75h1.829c0.904,13.662,12.315,24.5,26.213,24.5h35.648l17.615,21H29.729z M120.169,94.985l-17.615-21
			h46.175c13.877,0,25.274-10.808,26.209-24.438C186.696,50.405,196,60.253,196,72.235c0,12.544-10.196,22.75-22.729,22.75H120.169z
			"/>
	</g>
</g>
<g>
</g>
<g>
</g>
<g>
</g>
<g>
</g>
<g>
</g>
<g>
</g>
<g>
</g>
<g>
</g>
<g>
</g>
<g>
</g>
<g>
</g>
<g>
</g>
<g>
</g>
<g>
</g>
<g>
</g>
</svg>
