<svg height="511pt" viewBox="0 0 511.99987 511" width="511pt" xmlns="http://www.w3.org/2000/svg"><path d="m475.480469 140.578125c38.097656-63.515625 46.4375-106.695313 24.785156-128.34375-21.648437-21.652344-64.832031-13.3125-128.34375 24.785156-52.949219 31.761719-114.417969 81.019531-174.25 139.527344l-30.664063-30.664063c8.996094-18.066406 5.988282-40.632812-9.046874-55.667968l-45.167969-45.167969c-5.96875-5.96875-15.652344-5.96875-21.625 0l-46.621094 46.621094c-5.972656 5.972656-5.972656 15.652343 0 21.625l45.167969 45.167969c9.410156 9.40625 21.765625 14.109374 34.125 14.109374 7.394531 0 14.78125-1.695312 21.542968-5.0625l30.664063 30.660157c-58.507813 59.835937-107.765625 121.300781-139.527344 174.253906-38.097656 63.511719-46.4375 106.695313-24.785156 128.34375 7.824219 7.828125 18.460937 11.734375 31.859375 11.734375 23.664062 0 55.933594-12.195312 96.484375-36.519531 52.949219-31.761719 114.417969-81.019531 174.25-139.527344l30.664063 30.664063c-8.996094 18.0625-5.988282 40.632812 9.046874 55.667968l45.167969 45.167969c2.984375 2.984375 6.898438 4.476563 10.8125 4.476563 3.910157 0 7.828125-1.492188 10.8125-4.476563l46.617188-46.621094c5.972656-5.972656 5.972656-15.65625 0-21.625l-45.164063-45.167969c-15.039062-15.035156-37.605468-18.042968-55.667968-9.046874l-30.664063-30.664063c58.507813-59.835937 107.765625-121.300781 139.527344-174.25zm-87.828125-77.332031c42.046875-25.21875 67.375-32.191406 80.546875-32.191406 5.46875 0 8.84375 1.203124 10.441406 2.804687 5.445313 5.445313 6.3125 31.46875-29.386719 90.988281-3.285156 5.472656-6.777344 11.050782-10.445312 16.710938-17.253906-27.371094-40.496094-50.613282-67.867188-67.867188 5.660156-3.667968 11.238282-7.160156 16.710938-10.445312zm-44.628906 29.570312c32.53125 17.339844 59.320312 44.128906 76.660156 76.660156-28.414063 39.488282-64.511719 81.941407-105.355469 123.726563l-16.945313-16.945313c9.90625-11.636718 17.757813-23.78125 22.625-35.140624 11.261719-26.28125 3.121094-40.03125-2.738281-45.890626-5.855469-5.855468-19.605469-14-45.886719-2.734374-11.359374 4.867187-23.503906 12.71875-35.140624 22.625l-16.945313-16.945313c41.785156-40.84375 84.238281-76.941406 123.726563-105.355469zm-106.710938 165.621094 17.75 17.75c-17.445312 14.425781-31.664062 19.453125-37.183594 19.449219-.003906 0-.011718 0-.015625 0-.011719-5.503907 5.007813-19.738281 19.449219-37.199219zm21.625-21.625c17.445312-14.425781 31.664062-19.453125 37.183594-19.453125h.019531c.007813 5.507813-5.011719 19.738281-19.453125 37.203125zm-146.597656-99.980469-34.351563-34.351562 24.996094-24.996094 34.351563 34.355469c6.890624 6.890625 6.890624 18.101562 0 24.996094-6.890626 6.890624-18.105469 6.890624-24.996094-.003907zm13.007812 312.917969c-59.519531 35.703125-85.542968 34.835938-90.988281 29.390625s-6.3125-31.472656 29.386719-90.988281c3.285156-5.472656 6.773437-11.050782 10.445312-16.707032 17.25 27.371094 40.492188 50.613282 67.863282 67.863282-5.660157 3.667968-11.234376 7.160156-16.707032 10.441406zm44.625-29.566406c-32.53125-17.335938-59.320312-44.128906-76.660156-76.660156 28.417969-39.488282 64.515625-81.941407 105.359375-123.726563l16.945313 16.945313c-9.90625 11.632812-17.757813 23.777343-22.625 35.140624-11.261719 26.28125-3.121094 40.03125 2.738281 45.886719 3.722656 3.722657 10.632812 8.367188 21.925781 8.367188 6.472656 0 14.386719-1.527344 23.960938-5.628907 11.363281-4.867187 23.507812-12.71875 35.140624-22.625l16.945313 16.945313c-41.789063 40.84375-84.242187 76.941406-123.730469 105.355469zm219.191406-49.1875c4.523438 0 9.050782 1.722656 12.496094 5.167968l34.355469 34.351563-24.996094 24.996094-34.351562-34.351563c-6.894531-6.890625-6.894531-18.105468-.003907-24.996094 3.445313-3.445312 7.972657-5.167968 12.5-5.167968zm0 0"/></svg>