<svg height="512pt" viewBox="0 -128 512 512" width="512pt" xmlns="http://www.w3.org/2000/svg"><path d="m113.875 120.234375h280.546875v15.03125h-280.546875zm0 0"/><path d="m15.03125 167.628906v-32.363281h83.816406v-15.03125h-98.847656v51.796875l53.503906 83.46875h58.410156v-15.03125h-50.191406zm0 0"/><path d="m409.453125 120.234375v15.03125h83.800781l-8.660156 17.03125h-391.914062v15.03125h384.269531l-22.566407 44.378906c-9.019531 17.742188-26.988281 28.761719-46.890624 28.761719h-280.546876v15.03125h280.546876c25.589843 0 48.691406-14.171875 60.289062-36.980469l44.21875-86.964843v-11.320313zm0 0"/><path d="m62.621094 152.296875h15.03125v15.03125h-15.03125zm0 0"/><path d="m32.5625 152.296875h15.03125v15.03125h-15.03125zm0 0"/><path d="m445.707031 59.117188h-122.574219v15.027343h128.835938l12.6875 30.445313 13.871094-5.78125-41.171875-98.808594h-66.34375v15.03125h56.324219zm0 0"/><path d="m84.664062 15.03125h101.601563l22.414063 44.085938h-124.015626v15.027343h211.011719l30.058594-59.113281h30.246094v-15.03125h-39.460938l-30.058593 59.117188h-60.921876l-30.058593-59.117188h-120.835938l-41.171875 98.808594 13.871094 5.78125zm0 0"/><path d="m428.835938 104.203125h-15.027344v-15.027344h15.027344zm-30.058594 0h-15.027344v-15.027344h15.027344zm-30.058594 0h-15.027344v-15.027344h15.027344zm-30.058594 0h-15.027344v-15.027344h15.027344zm-30.058594 0h-15.027343v-15.027344h15.027343zm-30.058593 0h-15.027344v-15.027344h15.027344zm-30.058594 0h-15.027344v-15.027344h15.027344zm-30.058594 0h-15.027343v-15.027344h15.027343zm-30.058593 0h-15.027344v-15.027344h15.027344zm-30.058594 0h-15.027344v-15.027344h15.027344zm-30.058594 0h-15.027344v-15.027344h15.027344zm-30.058594 0h-15.027344v-15.027344h15.027344zm0 0"/><path d="m173.339844 44.085938h-15.03125v-15.027344h15.03125zm-30.058594 0h-15.03125v-15.027344h15.03125zm-30.058594 0h-15.03125v-15.027344h15.03125zm0 0"/><path d="m413.808594 44.085938h-15.03125v-15.027344h15.03125zm-30.058594 0h-15.03125v-15.027344h15.03125zm-30.058594 0h-15.03125v-15.027344h15.03125zm0 0"/></svg>